<mxfile host="app.diagrams.net" agent="Mozilla/5.0 (Windows NT 10.0; Win64; x64) AppleWebKit/537.36 (KHTML, like Gecko) Chrome/134.0.0.0 Safari/537.36" version="26.1.0">
  <diagram name="Trang-1" id="xEM73rpEVrrL5jjxI1y7">
    <mxGraphModel dx="1372" dy="786" grid="1" gridSize="10" guides="1" tooltips="1" connect="1" arrows="1" fold="1" page="1" pageScale="1" pageWidth="827" pageHeight="1169" math="0" shadow="0">
      <root>
        <mxCell id="0" />
        <mxCell id="1" parent="0" />
        <mxCell id="wXn2Od0A4kXsbqYKdfPV-141" value="AIChat page&#xa;StatefullWidget" style="whiteSpace=wrap;strokeWidth=2;" vertex="1" parent="1">
          <mxGeometry x="996" y="20" width="140" height="54" as="geometry" />
        </mxCell>
        <mxCell id="wXn2Od0A4kXsbqYKdfPV-142" value="Scaffold" style="whiteSpace=wrap;strokeWidth=2;" vertex="1" parent="1">
          <mxGeometry x="1007" y="124" width="118" height="54" as="geometry" />
        </mxCell>
        <mxCell id="wXn2Od0A4kXsbqYKdfPV-143" value="HeaderAppBar" style="whiteSpace=wrap;strokeWidth=2;" vertex="1" parent="1">
          <mxGeometry x="247" y="228" width="210" height="54" as="geometry" />
        </mxCell>
        <mxCell id="wXn2Od0A4kXsbqYKdfPV-144" value="Column&#xa;" style="whiteSpace=wrap;strokeWidth=2;" vertex="1" parent="1">
          <mxGeometry x="1066" y="228" width="162" height="54" as="geometry" />
        </mxCell>
        <mxCell id="wXn2Od0A4kXsbqYKdfPV-145" value="Back button&#xa;leading: IconButton" style="whiteSpace=wrap;strokeWidth=2;" vertex="1" parent="1">
          <mxGeometry x="140" y="332" width="204" height="54" as="geometry" />
        </mxCell>
        <mxCell id="wXn2Od0A4kXsbqYKdfPV-146" value="Heading&#xa;title: Row" style="whiteSpace=wrap;strokeWidth=2;" vertex="1" parent="1">
          <mxGeometry x="394" y="332" width="134" height="54" as="geometry" />
        </mxCell>
        <mxCell id="wXn2Od0A4kXsbqYKdfPV-147" value="Profile button&#xa;actions: GestureDetector" style="whiteSpace=wrap;strokeWidth=2;" vertex="1" parent="1">
          <mxGeometry x="663" y="332" width="244" height="54" as="geometry" />
        </mxCell>
        <mxCell id="wXn2Od0A4kXsbqYKdfPV-148" value="Text" style="whiteSpace=wrap;strokeWidth=2;" vertex="1" parent="1">
          <mxGeometry x="297" y="436" width="140" height="54" as="geometry" />
        </mxCell>
        <mxCell id="wXn2Od0A4kXsbqYKdfPV-149" value="Text" style="whiteSpace=wrap;strokeWidth=2;" vertex="1" parent="1">
          <mxGeometry x="486" y="436" width="140" height="54" as="geometry" />
        </mxCell>
        <mxCell id="wXn2Od0A4kXsbqYKdfPV-150" value="CircleAvatar" style="whiteSpace=wrap;strokeWidth=2;" vertex="1" parent="1">
          <mxGeometry x="686" y="436" width="197" height="54" as="geometry" />
        </mxCell>
        <mxCell id="wXn2Od0A4kXsbqYKdfPV-151" value="Text" style="whiteSpace=wrap;strokeWidth=2;" vertex="1" parent="1">
          <mxGeometry x="715" y="540" width="140" height="54" as="geometry" />
        </mxCell>
        <mxCell id="wXn2Od0A4kXsbqYKdfPV-152" value="Chat body&#xa;Expanded" style="whiteSpace=wrap;strokeWidth=2;" vertex="1" parent="1">
          <mxGeometry x="957" y="332" width="211" height="54" as="geometry" />
        </mxCell>
        <mxCell id="wXn2Od0A4kXsbqYKdfPV-153" value="Chat input bar&#xa;Container" style="whiteSpace=wrap;strokeWidth=2;" vertex="1" parent="1">
          <mxGeometry x="1401" y="332" width="238" height="54" as="geometry" />
        </mxCell>
        <mxCell id="wXn2Od0A4kXsbqYKdfPV-154" value="Center" style="whiteSpace=wrap;strokeWidth=2;" vertex="1" parent="1">
          <mxGeometry x="984" y="436" width="158" height="54" as="geometry" />
        </mxCell>
        <mxCell id="wXn2Od0A4kXsbqYKdfPV-155" value="Column" style="whiteSpace=wrap;strokeWidth=2;" vertex="1" parent="1">
          <mxGeometry x="981" y="540" width="163" height="54" as="geometry" />
        </mxCell>
        <mxCell id="wXn2Od0A4kXsbqYKdfPV-156" value="Icon&#xa;SizedBox" style="whiteSpace=wrap;strokeWidth=2;" vertex="1" parent="1">
          <mxGeometry x="760" y="680" width="167" height="54" as="geometry" />
        </mxCell>
        <mxCell id="wXn2Od0A4kXsbqYKdfPV-157" value="SizedBox" style="whiteSpace=wrap;strokeWidth=2;" vertex="1" parent="1">
          <mxGeometry x="940" y="680" width="183" height="54" as="geometry" />
        </mxCell>
        <mxCell id="wXn2Od0A4kXsbqYKdfPV-158" value="Text" style="whiteSpace=wrap;strokeWidth=2;" vertex="1" parent="1">
          <mxGeometry x="1142" y="680" width="140" height="54" as="geometry" />
        </mxCell>
        <mxCell id="wXn2Od0A4kXsbqYKdfPV-159" value="Row" style="whiteSpace=wrap;strokeWidth=2;" vertex="1" parent="1">
          <mxGeometry x="1451" y="436" width="138" height="54" as="geometry" />
        </mxCell>
        <mxCell id="wXn2Od0A4kXsbqYKdfPV-160" value="IconButton" style="whiteSpace=wrap;strokeWidth=2;" vertex="1" parent="1">
          <mxGeometry x="1194" y="540" width="187" height="54" as="geometry" />
        </mxCell>
        <mxCell id="wXn2Od0A4kXsbqYKdfPV-161" value="TextField&#xa;Expanded" style="whiteSpace=wrap;strokeWidth=2;" vertex="1" parent="1">
          <mxGeometry x="1431" y="540" width="209" height="54" as="geometry" />
        </mxCell>
        <mxCell id="wXn2Od0A4kXsbqYKdfPV-162" value="Send button&#xa;Container" style="whiteSpace=wrap;strokeWidth=2;" vertex="1" parent="1">
          <mxGeometry x="1690" y="540" width="226" height="54" as="geometry" />
        </mxCell>
        <mxCell id="wXn2Od0A4kXsbqYKdfPV-163" value="IconButton" style="whiteSpace=wrap;strokeWidth=2;" vertex="1" parent="1">
          <mxGeometry x="1710" y="644" width="187" height="54" as="geometry" />
        </mxCell>
        <mxCell id="wXn2Od0A4kXsbqYKdfPV-164" value="nAddPress" style="whiteSpace=wrap;strokeWidth=2;" vertex="1" parent="1">
          <mxGeometry x="2479" y="228" width="132" height="54" as="geometry" />
        </mxCell>
        <mxCell id="wXn2Od0A4kXsbqYKdfPV-165" value="Chat bottom modal&#xa;ShowModalBottomSheet" style="whiteSpace=wrap;strokeWidth=2;" vertex="1" parent="1">
          <mxGeometry x="2358" y="332" width="373" height="54" as="geometry" />
        </mxCell>
        <mxCell id="wXn2Od0A4kXsbqYKdfPV-166" value="Stack&#xa;SizedBox" style="whiteSpace=wrap;strokeWidth=2;" vertex="1" parent="1">
          <mxGeometry x="2457" y="436" width="176" height="54" as="geometry" />
        </mxCell>
        <mxCell id="wXn2Od0A4kXsbqYKdfPV-167" value="Main content&#xa;Column" style="whiteSpace=wrap;strokeWidth=2;" vertex="1" parent="1">
          <mxGeometry x="2240" y="540" width="218" height="54" as="geometry" />
        </mxCell>
        <mxCell id="wXn2Od0A4kXsbqYKdfPV-168" value="Selection panel&#xa;AnimatedBuilder" style="whiteSpace=wrap;strokeWidth=2;" vertex="1" parent="1">
          <mxGeometry x="3029" y="540" width="341" height="54" as="geometry" />
        </mxCell>
        <mxCell id="wXn2Od0A4kXsbqYKdfPV-169" value="Close button&#xa;GestureDetector" style="whiteSpace=wrap;strokeWidth=2;" vertex="1" parent="1">
          <mxGeometry x="1947" y="644" width="279" height="54" as="geometry" />
        </mxCell>
        <mxCell id="wXn2Od0A4kXsbqYKdfPV-170" value="Upload list&#xa;Row" style="whiteSpace=wrap;strokeWidth=2;" vertex="1" parent="1">
          <mxGeometry x="2276" y="644" width="235" height="54" as="geometry" />
        </mxCell>
        <mxCell id="wXn2Od0A4kXsbqYKdfPV-171" value="SizedBox&#xa;height" style="whiteSpace=wrap;strokeWidth=2;" vertex="1" parent="1">
          <mxGeometry x="2561" y="644" width="183" height="54" as="geometry" />
        </mxCell>
        <mxCell id="wXn2Od0A4kXsbqYKdfPV-172" value="Model selector&#xa;ListTile" style="whiteSpace=wrap;strokeWidth=2;" vertex="1" parent="1">
          <mxGeometry x="2794" y="644" width="228" height="54" as="geometry" />
        </mxCell>
        <mxCell id="wXn2Od0A4kXsbqYKdfPV-173" value="Upload item&#xa;Column" style="whiteSpace=wrap;strokeWidth=2;" vertex="1" parent="1">
          <mxGeometry x="1960" y="748" width="253" height="54" as="geometry" />
        </mxCell>
        <mxCell id="wXn2Od0A4kXsbqYKdfPV-248" style="edgeStyle=orthogonalEdgeStyle;rounded=0;orthogonalLoop=1;jettySize=auto;html=1;entryX=0.5;entryY=0;entryDx=0;entryDy=0;" edge="1" parent="1" source="wXn2Od0A4kXsbqYKdfPV-176" target="wXn2Od0A4kXsbqYKdfPV-247">
          <mxGeometry relative="1" as="geometry" />
        </mxCell>
        <mxCell id="wXn2Od0A4kXsbqYKdfPV-176" value="Container" style="whiteSpace=wrap;strokeWidth=2;" vertex="1" parent="1">
          <mxGeometry x="1680" y="852" width="179" height="54" as="geometry" />
        </mxCell>
        <mxCell id="wXn2Od0A4kXsbqYKdfPV-177" value="SizedBox" style="whiteSpace=wrap;strokeWidth=2;" vertex="1" parent="1">
          <mxGeometry x="1882" y="852" width="183" height="54" as="geometry" />
        </mxCell>
        <mxCell id="wXn2Od0A4kXsbqYKdfPV-178" value="Text" style="whiteSpace=wrap;strokeWidth=2;" vertex="1" parent="1">
          <mxGeometry x="2110" y="852" width="140" height="54" as="geometry" />
        </mxCell>
        <mxCell id="wXn2Od0A4kXsbqYKdfPV-179" value="Container" style="whiteSpace=wrap;strokeWidth=2;" vertex="1" parent="1">
          <mxGeometry x="3109" y="644" width="179" height="54" as="geometry" />
        </mxCell>
        <mxCell id="wXn2Od0A4kXsbqYKdfPV-180" value="Column" style="whiteSpace=wrap;strokeWidth=2;" vertex="1" parent="1">
          <mxGeometry x="3118" y="748" width="163" height="54" as="geometry" />
        </mxCell>
        <mxCell id="wXn2Od0A4kXsbqYKdfPV-181" value="AppBar" style="whiteSpace=wrap;strokeWidth=2;" vertex="1" parent="1">
          <mxGeometry x="2793" y="926" width="177" height="54" as="geometry" />
        </mxCell>
        <mxCell id="wXn2Od0A4kXsbqYKdfPV-182" value="Content section&#xa;Padding" style="whiteSpace=wrap;strokeWidth=2;" vertex="1" parent="1">
          <mxGeometry x="3470" y="830" width="240" height="54" as="geometry" />
        </mxCell>
        <mxCell id="wXn2Od0A4kXsbqYKdfPV-183" value="Backbutton&#xa;IconButton" style="whiteSpace=wrap;strokeWidth=2;" vertex="1" parent="1">
          <mxGeometry x="2670" y="1030" width="204" height="54" as="geometry" />
        </mxCell>
        <mxCell id="wXn2Od0A4kXsbqYKdfPV-184" value="Text" style="whiteSpace=wrap;strokeWidth=2;" vertex="1" parent="1">
          <mxGeometry x="2924" y="1030" width="136" height="54" as="geometry" />
        </mxCell>
        <mxCell id="wXn2Od0A4kXsbqYKdfPV-185" value="Description&#xa;Text" style="whiteSpace=wrap;strokeWidth=2;" vertex="1" parent="1">
          <mxGeometry x="3170" y="1030" width="186" height="54" as="geometry" />
        </mxCell>
        <mxCell id="wXn2Od0A4kXsbqYKdfPV-186" value="SizedBox" style="whiteSpace=wrap;strokeWidth=2;" vertex="1" parent="1">
          <mxGeometry x="3406" y="1030" width="183" height="54" as="geometry" />
        </mxCell>
        <mxCell id="wXn2Od0A4kXsbqYKdfPV-187" value="Option&#xa;Padding" style="whiteSpace=wrap;strokeWidth=2;" vertex="1" parent="1">
          <mxGeometry x="3639" y="1030" width="220" height="54" as="geometry" />
        </mxCell>
        <mxCell id="wXn2Od0A4kXsbqYKdfPV-190" value="Column&#xa;InkWell" style="whiteSpace=wrap;strokeWidth=2;" vertex="1" parent="1">
          <mxGeometry x="3659" y="1134" width="180" height="54" as="geometry" />
        </mxCell>
        <mxCell id="wXn2Od0A4kXsbqYKdfPV-191" value="Title&#xa;Text" style="whiteSpace=wrap;strokeWidth=2;" vertex="1" parent="1">
          <mxGeometry x="3470" y="1238" width="138" height="54" as="geometry" />
        </mxCell>
        <mxCell id="wXn2Od0A4kXsbqYKdfPV-192" value="SizedBox" style="whiteSpace=wrap;strokeWidth=2;" vertex="1" parent="1">
          <mxGeometry x="3657" y="1238" width="183" height="54" as="geometry" />
        </mxCell>
        <mxCell id="wXn2Od0A4kXsbqYKdfPV-193" value="Subtitle&#xa;Text" style="whiteSpace=wrap;strokeWidth=2;" vertex="1" parent="1">
          <mxGeometry x="3890" y="1238" width="161" height="54" as="geometry" />
        </mxCell>
        <mxCell id="wXn2Od0A4kXsbqYKdfPV-194" value="" style="curved=1;startArrow=none;endArrow=block;exitX=0.5;exitY=1;entryX=0.5;entryY=0;rounded=0;" edge="1" parent="1" source="wXn2Od0A4kXsbqYKdfPV-141" target="wXn2Od0A4kXsbqYKdfPV-142">
          <mxGeometry relative="1" as="geometry">
            <Array as="points" />
          </mxGeometry>
        </mxCell>
        <mxCell id="wXn2Od0A4kXsbqYKdfPV-195" value="" style="curved=1;startArrow=none;endArrow=block;exitX=0;exitY=0.58;entryX=0.5;entryY=0;rounded=0;" edge="1" parent="1" source="wXn2Od0A4kXsbqYKdfPV-142" target="wXn2Od0A4kXsbqYKdfPV-143">
          <mxGeometry relative="1" as="geometry">
            <Array as="points">
              <mxPoint x="352" y="203" />
            </Array>
          </mxGeometry>
        </mxCell>
        <mxCell id="wXn2Od0A4kXsbqYKdfPV-196" value="" style="curved=1;startArrow=none;endArrow=block;exitX=0.86;exitY=1;entryX=0.5;entryY=0;rounded=0;" edge="1" parent="1" source="wXn2Od0A4kXsbqYKdfPV-142" target="wXn2Od0A4kXsbqYKdfPV-144">
          <mxGeometry relative="1" as="geometry">
            <Array as="points">
              <mxPoint x="1147" y="203" />
            </Array>
          </mxGeometry>
        </mxCell>
        <mxCell id="wXn2Od0A4kXsbqYKdfPV-197" value="" style="curved=1;startArrow=none;endArrow=block;exitX=0.23;exitY=1;entryX=0.5;entryY=0;rounded=0;" edge="1" parent="1" source="wXn2Od0A4kXsbqYKdfPV-143" target="wXn2Od0A4kXsbqYKdfPV-145">
          <mxGeometry relative="1" as="geometry">
            <Array as="points">
              <mxPoint x="242" y="307" />
            </Array>
          </mxGeometry>
        </mxCell>
        <mxCell id="wXn2Od0A4kXsbqYKdfPV-198" value="" style="curved=1;startArrow=none;endArrow=block;exitX=0.77;exitY=1;entryX=0.5;entryY=0;rounded=0;" edge="1" parent="1" source="wXn2Od0A4kXsbqYKdfPV-143" target="wXn2Od0A4kXsbqYKdfPV-146">
          <mxGeometry relative="1" as="geometry">
            <Array as="points">
              <mxPoint x="461" y="307" />
            </Array>
          </mxGeometry>
        </mxCell>
        <mxCell id="wXn2Od0A4kXsbqYKdfPV-199" value="" style="curved=1;startArrow=none;endArrow=block;exitX=1;exitY=0.73;entryX=0.5;entryY=0;rounded=0;" edge="1" parent="1" source="wXn2Od0A4kXsbqYKdfPV-143" target="wXn2Od0A4kXsbqYKdfPV-147">
          <mxGeometry relative="1" as="geometry">
            <Array as="points">
              <mxPoint x="785" y="307" />
            </Array>
          </mxGeometry>
        </mxCell>
        <mxCell id="wXn2Od0A4kXsbqYKdfPV-200" value="" style="curved=1;startArrow=none;endArrow=block;exitX=0.13;exitY=1;entryX=0.5;entryY=0;rounded=0;" edge="1" parent="1" source="wXn2Od0A4kXsbqYKdfPV-146" target="wXn2Od0A4kXsbqYKdfPV-148">
          <mxGeometry relative="1" as="geometry">
            <Array as="points">
              <mxPoint x="366" y="411" />
            </Array>
          </mxGeometry>
        </mxCell>
        <mxCell id="wXn2Od0A4kXsbqYKdfPV-201" value="" style="curved=1;startArrow=none;endArrow=block;exitX=0.87;exitY=1;entryX=0.5;entryY=0;rounded=0;" edge="1" parent="1" source="wXn2Od0A4kXsbqYKdfPV-146" target="wXn2Od0A4kXsbqYKdfPV-149">
          <mxGeometry relative="1" as="geometry">
            <Array as="points">
              <mxPoint x="556" y="411" />
            </Array>
          </mxGeometry>
        </mxCell>
        <mxCell id="wXn2Od0A4kXsbqYKdfPV-202" value="" style="curved=1;startArrow=none;endArrow=block;exitX=0.5;exitY=1;entryX=0.5;entryY=0;rounded=0;" edge="1" parent="1" source="wXn2Od0A4kXsbqYKdfPV-147" target="wXn2Od0A4kXsbqYKdfPV-150">
          <mxGeometry relative="1" as="geometry">
            <Array as="points" />
          </mxGeometry>
        </mxCell>
        <mxCell id="wXn2Od0A4kXsbqYKdfPV-203" value="" style="curved=1;startArrow=none;endArrow=block;exitX=0.5;exitY=1;entryX=0.5;entryY=0;rounded=0;" edge="1" parent="1" source="wXn2Od0A4kXsbqYKdfPV-150" target="wXn2Od0A4kXsbqYKdfPV-151">
          <mxGeometry relative="1" as="geometry">
            <Array as="points" />
          </mxGeometry>
        </mxCell>
        <mxCell id="wXn2Od0A4kXsbqYKdfPV-204" value="" style="curved=1;startArrow=none;endArrow=block;exitX=0.23;exitY=1;entryX=0.5;entryY=0;rounded=0;" edge="1" parent="1" source="wXn2Od0A4kXsbqYKdfPV-144" target="wXn2Od0A4kXsbqYKdfPV-152">
          <mxGeometry relative="1" as="geometry">
            <Array as="points">
              <mxPoint x="1062" y="307" />
            </Array>
          </mxGeometry>
        </mxCell>
        <mxCell id="wXn2Od0A4kXsbqYKdfPV-205" value="" style="curved=1;startArrow=none;endArrow=block;exitX=1;exitY=0.71;entryX=0.5;entryY=0;rounded=0;" edge="1" parent="1" source="wXn2Od0A4kXsbqYKdfPV-144" target="wXn2Od0A4kXsbqYKdfPV-153">
          <mxGeometry relative="1" as="geometry">
            <Array as="points">
              <mxPoint x="1521" y="307" />
            </Array>
          </mxGeometry>
        </mxCell>
        <mxCell id="wXn2Od0A4kXsbqYKdfPV-206" value="" style="curved=1;startArrow=none;endArrow=block;exitX=0.5;exitY=1;entryX=0.5;entryY=0;rounded=0;" edge="1" parent="1" source="wXn2Od0A4kXsbqYKdfPV-152" target="wXn2Od0A4kXsbqYKdfPV-154">
          <mxGeometry relative="1" as="geometry">
            <Array as="points" />
          </mxGeometry>
        </mxCell>
        <mxCell id="wXn2Od0A4kXsbqYKdfPV-207" value="" style="curved=1;startArrow=none;endArrow=block;exitX=0.5;exitY=1;entryX=0.5;entryY=0;rounded=0;" edge="1" parent="1" source="wXn2Od0A4kXsbqYKdfPV-154" target="wXn2Od0A4kXsbqYKdfPV-155">
          <mxGeometry relative="1" as="geometry">
            <Array as="points" />
          </mxGeometry>
        </mxCell>
        <mxCell id="wXn2Od0A4kXsbqYKdfPV-208" value="" style="curved=1;startArrow=none;endArrow=block;exitX=0;exitY=0.74;entryX=0.5;entryY=0;rounded=0;" edge="1" parent="1" source="wXn2Od0A4kXsbqYKdfPV-155" target="wXn2Od0A4kXsbqYKdfPV-156">
          <mxGeometry relative="1" as="geometry">
            <Array as="points">
              <mxPoint x="900" y="620" />
            </Array>
          </mxGeometry>
        </mxCell>
        <mxCell id="wXn2Od0A4kXsbqYKdfPV-209" value="" style="curved=1;startArrow=none;endArrow=block;exitX=0.5;exitY=1;entryX=0.5;entryY=0;rounded=0;exitDx=0;exitDy=0;" edge="1" parent="1" source="wXn2Od0A4kXsbqYKdfPV-155" target="wXn2Od0A4kXsbqYKdfPV-157">
          <mxGeometry relative="1" as="geometry">
            <Array as="points" />
          </mxGeometry>
        </mxCell>
        <mxCell id="wXn2Od0A4kXsbqYKdfPV-210" value="" style="curved=1;startArrow=none;endArrow=block;exitX=1;exitY=0.8;entryX=0.5;entryY=0;rounded=0;" edge="1" parent="1" source="wXn2Od0A4kXsbqYKdfPV-155" target="wXn2Od0A4kXsbqYKdfPV-158">
          <mxGeometry relative="1" as="geometry">
            <Array as="points">
              <mxPoint x="1220" y="630" />
            </Array>
          </mxGeometry>
        </mxCell>
        <mxCell id="wXn2Od0A4kXsbqYKdfPV-211" value="" style="curved=1;startArrow=none;endArrow=block;exitX=0.5;exitY=1;entryX=0.5;entryY=0;rounded=0;" edge="1" parent="1" source="wXn2Od0A4kXsbqYKdfPV-153" target="wXn2Od0A4kXsbqYKdfPV-159">
          <mxGeometry relative="1" as="geometry">
            <Array as="points" />
          </mxGeometry>
        </mxCell>
        <mxCell id="wXn2Od0A4kXsbqYKdfPV-212" value="" style="curved=1;startArrow=none;endArrow=block;exitX=0;exitY=0.79;entryX=0.5;entryY=0;rounded=0;" edge="1" parent="1" source="wXn2Od0A4kXsbqYKdfPV-159" target="wXn2Od0A4kXsbqYKdfPV-160">
          <mxGeometry relative="1" as="geometry">
            <Array as="points">
              <mxPoint x="1287" y="515" />
            </Array>
          </mxGeometry>
        </mxCell>
        <mxCell id="wXn2Od0A4kXsbqYKdfPV-213" value="" style="curved=1;startArrow=none;endArrow=block;exitX=0.56;exitY=1;entryX=0.5;entryY=0;rounded=0;" edge="1" parent="1" source="wXn2Od0A4kXsbqYKdfPV-159" target="wXn2Od0A4kXsbqYKdfPV-161">
          <mxGeometry relative="1" as="geometry">
            <Array as="points">
              <mxPoint x="1535" y="515" />
            </Array>
          </mxGeometry>
        </mxCell>
        <mxCell id="wXn2Od0A4kXsbqYKdfPV-214" value="" style="curved=1;startArrow=none;endArrow=block;exitX=1.01;exitY=0.74;entryX=0.5;entryY=0;rounded=0;" edge="1" parent="1" source="wXn2Od0A4kXsbqYKdfPV-159" target="wXn2Od0A4kXsbqYKdfPV-162">
          <mxGeometry relative="1" as="geometry">
            <Array as="points">
              <mxPoint x="1803" y="515" />
            </Array>
          </mxGeometry>
        </mxCell>
        <mxCell id="wXn2Od0A4kXsbqYKdfPV-215" value="" style="curved=1;startArrow=none;endArrow=block;exitX=0.5;exitY=1;entryX=0.5;entryY=0;rounded=0;" edge="1" parent="1" source="wXn2Od0A4kXsbqYKdfPV-162" target="wXn2Od0A4kXsbqYKdfPV-163">
          <mxGeometry relative="1" as="geometry">
            <Array as="points" />
          </mxGeometry>
        </mxCell>
        <mxCell id="wXn2Od0A4kXsbqYKdfPV-216" value="" style="curved=1;startArrow=none;endArrow=oval;endSize=10;endFill=1;exitX=1;exitY=0.54;entryX=0.5;entryY=0;rounded=0;" edge="1" parent="1" source="wXn2Od0A4kXsbqYKdfPV-142" target="wXn2Od0A4kXsbqYKdfPV-164">
          <mxGeometry relative="1" as="geometry">
            <Array as="points">
              <mxPoint x="2545" y="203" />
            </Array>
          </mxGeometry>
        </mxCell>
        <mxCell id="wXn2Od0A4kXsbqYKdfPV-217" value="" style="curved=1;startArrow=none;endArrow=block;exitX=0.5;exitY=1;entryX=0.5;entryY=0;rounded=0;" edge="1" parent="1" source="wXn2Od0A4kXsbqYKdfPV-164" target="wXn2Od0A4kXsbqYKdfPV-165">
          <mxGeometry relative="1" as="geometry">
            <Array as="points" />
          </mxGeometry>
        </mxCell>
        <mxCell id="wXn2Od0A4kXsbqYKdfPV-218" value="" style="curved=1;startArrow=none;endArrow=block;exitX=0.5;exitY=1;entryX=0.5;entryY=0;rounded=0;" edge="1" parent="1" source="wXn2Od0A4kXsbqYKdfPV-165" target="wXn2Od0A4kXsbqYKdfPV-166">
          <mxGeometry relative="1" as="geometry">
            <Array as="points" />
          </mxGeometry>
        </mxCell>
        <mxCell id="wXn2Od0A4kXsbqYKdfPV-219" value="" style="curved=1;startArrow=none;endArrow=block;exitX=0;exitY=0.93;entryX=0.5;entryY=0;rounded=0;" edge="1" parent="1" source="wXn2Od0A4kXsbqYKdfPV-166" target="wXn2Od0A4kXsbqYKdfPV-167">
          <mxGeometry relative="1" as="geometry">
            <Array as="points">
              <mxPoint x="2349" y="515" />
            </Array>
          </mxGeometry>
        </mxCell>
        <mxCell id="wXn2Od0A4kXsbqYKdfPV-220" value="" style="curved=1;startArrow=none;endArrow=block;exitX=1;exitY=0.63;entryX=0.5;entryY=0;rounded=0;" edge="1" parent="1" source="wXn2Od0A4kXsbqYKdfPV-166" target="wXn2Od0A4kXsbqYKdfPV-168">
          <mxGeometry relative="1" as="geometry">
            <Array as="points">
              <mxPoint x="3199" y="515" />
            </Array>
          </mxGeometry>
        </mxCell>
        <mxCell id="wXn2Od0A4kXsbqYKdfPV-221" value="" style="curved=1;startArrow=none;endArrow=block;exitX=0;exitY=0.9;entryX=0.5;entryY=0;rounded=0;" edge="1" parent="1" source="wXn2Od0A4kXsbqYKdfPV-167" target="wXn2Od0A4kXsbqYKdfPV-169">
          <mxGeometry relative="1" as="geometry">
            <Array as="points">
              <mxPoint x="2086" y="619" />
            </Array>
          </mxGeometry>
        </mxCell>
        <mxCell id="wXn2Od0A4kXsbqYKdfPV-222" value="" style="curved=1;startArrow=none;endArrow=block;exitX=0.61;exitY=1;entryX=0.5;entryY=0;rounded=0;" edge="1" parent="1" source="wXn2Od0A4kXsbqYKdfPV-167" target="wXn2Od0A4kXsbqYKdfPV-170">
          <mxGeometry relative="1" as="geometry">
            <Array as="points">
              <mxPoint x="2393" y="619" />
            </Array>
          </mxGeometry>
        </mxCell>
        <mxCell id="wXn2Od0A4kXsbqYKdfPV-223" value="" style="curved=1;startArrow=none;endArrow=block;exitX=1;exitY=0.85;entryX=0.5;entryY=0;rounded=0;" edge="1" parent="1" source="wXn2Od0A4kXsbqYKdfPV-167" target="wXn2Od0A4kXsbqYKdfPV-171">
          <mxGeometry relative="1" as="geometry">
            <Array as="points">
              <mxPoint x="2652" y="619" />
            </Array>
          </mxGeometry>
        </mxCell>
        <mxCell id="wXn2Od0A4kXsbqYKdfPV-224" value="" style="curved=1;startArrow=none;endArrow=block;exitX=1;exitY=0.69;entryX=0.5;entryY=0;rounded=0;" edge="1" parent="1" source="wXn2Od0A4kXsbqYKdfPV-167" target="wXn2Od0A4kXsbqYKdfPV-172">
          <mxGeometry relative="1" as="geometry">
            <Array as="points">
              <mxPoint x="2908" y="619" />
            </Array>
          </mxGeometry>
        </mxCell>
        <mxCell id="wXn2Od0A4kXsbqYKdfPV-225" value="" style="curved=1;startArrow=none;endArrow=block;exitX=0;exitY=0.75;entryX=0.5;entryY=0;rounded=0;" edge="1" parent="1" source="wXn2Od0A4kXsbqYKdfPV-170" target="wXn2Od0A4kXsbqYKdfPV-173">
          <mxGeometry relative="1" as="geometry">
            <Array as="points">
              <mxPoint x="2240" y="723" />
            </Array>
          </mxGeometry>
        </mxCell>
        <mxCell id="wXn2Od0A4kXsbqYKdfPV-228" value="" style="curved=1;startArrow=none;endArrow=block;exitX=0;exitY=0.87;entryX=0.5;entryY=0;rounded=0;" edge="1" parent="1" source="wXn2Od0A4kXsbqYKdfPV-173" target="wXn2Od0A4kXsbqYKdfPV-176">
          <mxGeometry relative="1" as="geometry">
            <Array as="points">
              <mxPoint x="1840" y="795" />
            </Array>
          </mxGeometry>
        </mxCell>
        <mxCell id="wXn2Od0A4kXsbqYKdfPV-229" value="" style="curved=1;startArrow=none;endArrow=block;exitX=0.29;exitY=1;entryX=0.5;entryY=0;rounded=0;" edge="1" parent="1" source="wXn2Od0A4kXsbqYKdfPV-173" target="wXn2Od0A4kXsbqYKdfPV-177">
          <mxGeometry relative="1" as="geometry">
            <Array as="points">
              <mxPoint x="1990" y="827" />
            </Array>
          </mxGeometry>
        </mxCell>
        <mxCell id="wXn2Od0A4kXsbqYKdfPV-230" value="" style="curved=1;startArrow=none;endArrow=block;exitX=0.837;exitY=0.979;entryX=0.5;entryY=0;rounded=0;exitDx=0;exitDy=0;exitPerimeter=0;" edge="1" parent="1" source="wXn2Od0A4kXsbqYKdfPV-173" target="wXn2Od0A4kXsbqYKdfPV-178">
          <mxGeometry relative="1" as="geometry">
            <Array as="points">
              <mxPoint x="2220" y="830" />
            </Array>
          </mxGeometry>
        </mxCell>
        <mxCell id="wXn2Od0A4kXsbqYKdfPV-231" value="" style="curved=1;startArrow=none;endArrow=block;exitX=0.5;exitY=1;entryX=0.5;entryY=0;rounded=0;" edge="1" parent="1" source="wXn2Od0A4kXsbqYKdfPV-168" target="wXn2Od0A4kXsbqYKdfPV-179">
          <mxGeometry relative="1" as="geometry">
            <Array as="points" />
          </mxGeometry>
        </mxCell>
        <mxCell id="wXn2Od0A4kXsbqYKdfPV-232" value="" style="curved=1;startArrow=none;endArrow=block;exitX=0.5;exitY=1;entryX=0.5;entryY=0;rounded=0;" edge="1" parent="1" source="wXn2Od0A4kXsbqYKdfPV-179" target="wXn2Od0A4kXsbqYKdfPV-180">
          <mxGeometry relative="1" as="geometry">
            <Array as="points" />
          </mxGeometry>
        </mxCell>
        <mxCell id="wXn2Od0A4kXsbqYKdfPV-233" value="" style="curved=1;startArrow=none;endArrow=block;exitX=0;exitY=0.63;entryX=0.5;entryY=0;rounded=0;" edge="1" parent="1" source="wXn2Od0A4kXsbqYKdfPV-180" target="wXn2Od0A4kXsbqYKdfPV-181">
          <mxGeometry relative="1" as="geometry">
            <Array as="points">
              <mxPoint x="2890" y="850" />
            </Array>
          </mxGeometry>
        </mxCell>
        <mxCell id="wXn2Od0A4kXsbqYKdfPV-234" value="" style="curved=1;startArrow=none;endArrow=block;exitX=1;exitY=0.77;entryX=0.5;entryY=0;rounded=0;" edge="1" parent="1" source="wXn2Od0A4kXsbqYKdfPV-180" target="wXn2Od0A4kXsbqYKdfPV-182">
          <mxGeometry relative="1" as="geometry">
            <Array as="points">
              <mxPoint x="3480" y="800" />
            </Array>
          </mxGeometry>
        </mxCell>
        <mxCell id="wXn2Od0A4kXsbqYKdfPV-235" value="" style="curved=1;startArrow=none;endArrow=block;exitX=0.18;exitY=1;entryX=0.5;entryY=0;rounded=0;" edge="1" parent="1" source="wXn2Od0A4kXsbqYKdfPV-181" target="wXn2Od0A4kXsbqYKdfPV-183">
          <mxGeometry relative="1" as="geometry">
            <Array as="points">
              <mxPoint x="2772" y="1005" />
            </Array>
          </mxGeometry>
        </mxCell>
        <mxCell id="wXn2Od0A4kXsbqYKdfPV-236" value="" style="curved=1;startArrow=none;endArrow=block;exitX=0.82;exitY=1;entryX=0.5;entryY=0;rounded=0;" edge="1" parent="1" source="wXn2Od0A4kXsbqYKdfPV-181" target="wXn2Od0A4kXsbqYKdfPV-184">
          <mxGeometry relative="1" as="geometry">
            <Array as="points">
              <mxPoint x="2991" y="1005" />
            </Array>
          </mxGeometry>
        </mxCell>
        <mxCell id="wXn2Od0A4kXsbqYKdfPV-237" value="" style="curved=1;startArrow=none;endArrow=block;exitX=0;exitY=0.7;entryX=0.5;entryY=0;rounded=0;" edge="1" parent="1" source="wXn2Od0A4kXsbqYKdfPV-182" target="wXn2Od0A4kXsbqYKdfPV-185">
          <mxGeometry relative="1" as="geometry">
            <Array as="points">
              <mxPoint x="3330" y="910" />
            </Array>
          </mxGeometry>
        </mxCell>
        <mxCell id="wXn2Od0A4kXsbqYKdfPV-238" value="" style="curved=1;startArrow=none;endArrow=block;exitX=0.5;exitY=1;entryX=0.5;entryY=0;rounded=0;exitDx=0;exitDy=0;" edge="1" parent="1" source="wXn2Od0A4kXsbqYKdfPV-182" target="wXn2Od0A4kXsbqYKdfPV-186">
          <mxGeometry relative="1" as="geometry">
            <Array as="points">
              <mxPoint x="3490" y="960" />
            </Array>
          </mxGeometry>
        </mxCell>
        <mxCell id="wXn2Od0A4kXsbqYKdfPV-239" value="" style="curved=1;startArrow=none;endArrow=block;exitX=1;exitY=0.5;entryX=0.5;entryY=0;rounded=0;exitDx=0;exitDy=0;" edge="1" parent="1" source="wXn2Od0A4kXsbqYKdfPV-182" target="wXn2Od0A4kXsbqYKdfPV-187">
          <mxGeometry relative="1" as="geometry">
            <Array as="points">
              <mxPoint x="3760" y="920" />
            </Array>
          </mxGeometry>
        </mxCell>
        <mxCell id="wXn2Od0A4kXsbqYKdfPV-242" value="" style="curved=1;startArrow=none;endArrow=block;exitX=0.5;exitY=1;entryX=0.5;entryY=0;rounded=0;" edge="1" parent="1" source="wXn2Od0A4kXsbqYKdfPV-187" target="wXn2Od0A4kXsbqYKdfPV-190">
          <mxGeometry relative="1" as="geometry">
            <Array as="points" />
          </mxGeometry>
        </mxCell>
        <mxCell id="wXn2Od0A4kXsbqYKdfPV-243" value="" style="curved=1;startArrow=none;endArrow=block;exitX=0;exitY=0.91;entryX=0.5;entryY=0;rounded=0;" edge="1" parent="1" source="wXn2Od0A4kXsbqYKdfPV-190" target="wXn2Od0A4kXsbqYKdfPV-191">
          <mxGeometry relative="1" as="geometry">
            <Array as="points">
              <mxPoint x="3538" y="1213" />
            </Array>
          </mxGeometry>
        </mxCell>
        <mxCell id="wXn2Od0A4kXsbqYKdfPV-244" value="" style="curved=1;startArrow=none;endArrow=block;exitX=0.5;exitY=1;entryX=0.5;entryY=0;rounded=0;" edge="1" parent="1" source="wXn2Od0A4kXsbqYKdfPV-190" target="wXn2Od0A4kXsbqYKdfPV-192">
          <mxGeometry relative="1" as="geometry">
            <Array as="points" />
          </mxGeometry>
        </mxCell>
        <mxCell id="wXn2Od0A4kXsbqYKdfPV-245" value="" style="curved=1;startArrow=none;endArrow=block;exitX=1;exitY=0.89;entryX=0.5;entryY=0;rounded=0;" edge="1" parent="1" source="wXn2Od0A4kXsbqYKdfPV-190" target="wXn2Od0A4kXsbqYKdfPV-193">
          <mxGeometry relative="1" as="geometry">
            <Array as="points">
              <mxPoint x="3971" y="1213" />
            </Array>
          </mxGeometry>
        </mxCell>
        <mxCell id="wXn2Od0A4kXsbqYKdfPV-247" value="Icon" style="whiteSpace=wrap;strokeWidth=2;" vertex="1" parent="1">
          <mxGeometry x="1680" y="930" width="179" height="54" as="geometry" />
        </mxCell>
        <mxCell id="wXn2Od0A4kXsbqYKdfPV-249" value="Icon" style="whiteSpace=wrap;strokeWidth=2;" vertex="1" parent="1">
          <mxGeometry x="2440" y="740" width="140" height="54" as="geometry" />
        </mxCell>
        <mxCell id="wXn2Od0A4kXsbqYKdfPV-250" value="Text" style="whiteSpace=wrap;strokeWidth=2;" vertex="1" parent="1">
          <mxGeometry x="2604" y="740" width="140" height="54" as="geometry" />
        </mxCell>
        <mxCell id="wXn2Od0A4kXsbqYKdfPV-251" value="Text" style="whiteSpace=wrap;strokeWidth=2;" vertex="1" parent="1">
          <mxGeometry x="2770" y="740" width="140" height="54" as="geometry" />
        </mxCell>
        <mxCell id="wXn2Od0A4kXsbqYKdfPV-252" value="" style="curved=1;startArrow=none;endArrow=block;exitX=0;exitY=0.5;entryX=0.5;entryY=0;rounded=0;exitDx=0;exitDy=0;entryDx=0;entryDy=0;" edge="1" parent="1" source="wXn2Od0A4kXsbqYKdfPV-171" target="wXn2Od0A4kXsbqYKdfPV-249">
          <mxGeometry relative="1" as="geometry">
            <Array as="points">
              <mxPoint x="2520" y="710" />
            </Array>
            <mxPoint x="2468" y="596" as="sourcePoint" />
            <mxPoint x="2663" y="654" as="targetPoint" />
          </mxGeometry>
        </mxCell>
        <mxCell id="wXn2Od0A4kXsbqYKdfPV-253" value="" style="curved=1;startArrow=none;endArrow=block;exitX=0.874;exitY=1.026;entryX=0.467;entryY=-0.011;rounded=0;exitDx=0;exitDy=0;entryDx=0;entryDy=0;entryPerimeter=0;exitPerimeter=0;" edge="1" parent="1" source="wXn2Od0A4kXsbqYKdfPV-171" target="wXn2Od0A4kXsbqYKdfPV-251">
          <mxGeometry relative="1" as="geometry">
            <Array as="points">
              <mxPoint x="2729" y="729" />
            </Array>
            <mxPoint x="2770" y="690" as="sourcePoint" />
            <mxPoint x="2719" y="759" as="targetPoint" />
          </mxGeometry>
        </mxCell>
        <mxCell id="wXn2Od0A4kXsbqYKdfPV-254" value="" style="curved=1;startArrow=none;endArrow=block;exitX=0.5;exitY=1;entryX=0.5;entryY=0;rounded=0;exitDx=0;exitDy=0;entryDx=0;entryDy=0;" edge="1" parent="1" source="wXn2Od0A4kXsbqYKdfPV-171" target="wXn2Od0A4kXsbqYKdfPV-250">
          <mxGeometry relative="1" as="geometry">
            <Array as="points">
              <mxPoint x="2650" y="720" />
            </Array>
            <mxPoint x="2581" y="691" as="sourcePoint" />
            <mxPoint x="2530" y="760" as="targetPoint" />
          </mxGeometry>
        </mxCell>
      </root>
    </mxGraphModel>
  </diagram>
</mxfile>
